<?xml version="1.0" encoding="utf-8"?>
<svg id="visual" viewBox="0 0 1080 200" width="1080" height="200" version="1.1" xmlns="http://www.w3.org/2000/svg">
  <path d="M 0 71 L 30 72.7 C 60 74.3 120 77.7 180 80 C 240 82.3 300 83.7 360 79.7 C 420 75.7 480 66.3 540 61.8 C 600 57.3 660 57.7 720 56.8 C 780 56 840 54 900 60.2 C 960 66.3 1020 80.7 1050 87.8 L 1080 95 L 1080 0 L 1050 0 C 1020 0 960 0 900 0 C 840 0 780 0 720 0 C 660 0 600 0 540 0 C 480 0 420 0 360 0 C 300 0 240 0 180 0 C 120 0 60 0 30 0 L 0 0 L 0 71 Z" fill="#a5c9ca"/>
  <path d="M 0 37 L 30 40.2 C 60 43.3 120 49.7 180 53 C 240 56.3 300 56.7 360 53.2 C 420 49.7 480 42.3 540 39.2 C 600 36 660 37 720 35.8 C 780 34.7 840 31.3 900 33.2 C 960 35 1020 42 1050 45.5 L 1080 49 L 1080 0 L 1050 0 C 1020 0 960 0 900 0 C 840 0 780 0 720 0 C 660 0 600 0 540 0 C 480 0 420 0 360 0 C 300 0 240 0 180 0 C 120 0 60 0 30 0 L 0 0 L 0 37 Z" fill="#395b64"/>
</svg>