<svg id="visual" viewBox="0 0 1080 200" width="1080" height="200" xmlns="http://www.w3.org/2000/svg" xmlns:xlink="http://www.w3.org/1999/xlink" version="1.1"><path d="M0 130L30 128.3C60 126.7 120 123.3 180 121C240 118.7 300 117.3 360 121.3C420 125.3 480 134.7 540 139.2C600 143.7 660 143.3 720 144.2C780 145 840 147 900 140.8C960 134.7 1020 120.3 1050 113.2L1080 106L1080 201L1050 201C1020 201 960 201 900 201C840 201 780 201 720 201C660 201 600 201 540 201C480 201 420 201 360 201C300 201 240 201 180 201C120 201 60 201 30 201L0 201Z" fill="#a5c9ca"></path><path d="M0 164L30 160.8C60 157.7 120 151.3 180 148C240 144.7 300 144.3 360 147.8C420 151.3 480 158.7 540 161.8C600 165 660 164 720 165.2C780 166.3 840 169.7 900 167.8C960 166 1020 159 1050 155.5L1080 152L1080 201L1050 201C1020 201 960 201 900 201C840 201 780 201 720 201C660 201 600 201 540 201C480 201 420 201 360 201C300 201 240 201 180 201C120 201 60 201 30 201L0 201Z" fill="#395b64"></path></svg>