<?xml version="1.0" encoding="UTF-8"?>
<svg id="a" xmlns="http://www.w3.org/2000/svg" viewBox="0 0 647.91 185.45">
  <defs>
    <style>.b {
      fill: #aab0b5;
    }

    .c {
      fill: #aab0b5;
    }

    .d {
      fill: #aab0b5;
    }</style>
  </defs>
  <g>
    <path class="c"
          d="M548.52,115.53c-.02-10.41,.01-20.82-.03-31.23,0-2.05-.11-4.12-.43-6.13-3.78-24.01-26.64-39.52-50.35-34.31-20.85,4.58-34.81,24.13-32.72,44.67,1.21,11.88,6.51,21.55,15.77,29.01,6.64,5.36,14.33,8.22,22.8,9.04,3.9,.37,7.13-2.3,7.35-6.01,.22-3.8-2.69-6.75-6.71-6.83-.69-.01-1.39-.12-2.08-.22-16.4-2.37-27.9-19.6-23.81-35.68,3.96-15.6,18.79-24.95,34.62-21.82,12.62,2.49,22.47,13.82,22.95,26.7,.23,6.15,.04,12.32,.04,18.48h-.03c0,6.21,.02,12.41,0,18.62-.02,3.95,2.96,6.97,6.76,6.78"/>
    <path class="c"
          d="M1.53,2.78C2.69,1.41,4.37,.62,6.31,.62c16.06,.02,32.13-.27,48.17,.17,13.27,.36,25.07,4.94,34.46,14.73,13.52,14.11,14.12,36.22,1.55,51.37-8.29,10-18.98,15.58-31.82,17.12-2.31,.28-4.65,.3-6.98,.32-6.58,.04-13.16,.01-19.75,.01h-1.79c.67,.48,.97,.73,1.3,.93,15.3,9.3,47.15,28.41,47.78,28.78,3.74,2.21,4.73,6.27,3.08,9.27-1.87,3.39-6,4.54-9.4,2.46-14.63-8.97-29.22-17.99-43.85-26.96-5.28-3.24-10.58-6.47-15.96-9.55-3.19-1.82-4.99-4.25-4.68-8.03,.07-.83,0-1.68,.01-2.52,.03-4.13,2.98-6.98,7.13-6.96,13.72,.04,27.45,.22,41.17,.04,12.44-.16,21.63-6.22,27.11-17.17,5.41-10.82,3.69-21.3-3.88-30.59-6.03-7.4-13.96-11.23-23.67-11.19-16.01,.06-32.03-.05-48.04,.06-2.66,.02-4.86-.46-6.43-1.99-.77-.75-1.84-2.26-1.84-4.25S1.06,3.34,1.53,2.78Z"/>
    <path class="d"
          d="M647.91,86.84c-.28,1.93-.46,3.87-.85,5.78-2.94,14.39-11.05,24.84-24.46,30.76-17.04,7.52-36.02,3.27-48.49-10.62-5.82-6.48-9.3-14.12-10.23-22.84-.18-1.71-.26-3.44-.26-5.16-.02-25.86-.01-51.72,0-77.58,0-3.37,1.67-5.79,4.53-6.62,3.84-1.11,7.72,1.57,8.02,5.57,.04,.56,.02,1.12,.02,1.68,0,25.3-.02,50.6,.01,75.89,.01,11.52,4.62,20.7,14.68,26.55,16.83,9.79,39.42,1.28,43.62-19.68,3.19-15.91-6.25-30.56-22.01-34.37-2.23-.54-4.6-.66-6.91-.72-4.04-.1-6.97-2.73-6.96-6.47,0-3.74,2.98-6.47,6.99-6.4,21.05,.33,36.64,14.45,40.96,32.08,.54,2.2,.7,4.49,1.05,6.74,.08,.5,.19,.99,.29,1.49v3.92Z"/>
    <path class="c"
          d="M264.55,126.74c-2.86-1.07-4.67-4.01-4.21-6.83,.52-3.16,2.95-5.38,6.11-5.56,22.89-1.29,42.2-17.51,46.83-39.88,3.48-16.81-.57-31.95-11.8-44.96-7.6-8.8-17.28-14.22-28.75-16.28-2.42-.43-4.91-.65-7.37-.67-8.26-.07-16.52-.02-24.78,0-3.72,0-6.35-2.05-6.84-5.46-.44-3.01,1.64-6.25,4.86-6.87,.13-.02,.23-.15,.35-.22,9.99,0,19.98,0,29.97,0,3.52,.63,7.13,.96,10.55,1.93,17.76,5,30.88,15.88,39.74,31.96,12.82,23.27,9.46,55.32-12.62,76.39-8.35,7.97-18.07,13.42-29.4,15.85-1.99,.43-5.16,.85-6.1,.92s-5.3,.12-6.53-.32Z"/>
    <path class="d"
          d="M376.13,127.17c-2.28,0-4.1-1.09-5.13-1.9-1.86-1.47-2.64-3.54-2.64-5.92,.04-31.08,.09-62.17,.11-93.25,0-6.11-.05-12.23-.11-18.34-.04-3.88,2.67-6.87,6.36-6.91,3.7-.04,6.5,2.87,6.5,6.76-.01,34.91-.03,69.82-.04,104.73,0,.6,0,1.2,0,1.93,.61,.03,1.1,.08,1.6,.08,22.96,0,45.91-.09,68.88-.09,1.17,0,2.36-.04,3.51,.09,2.95,.35,5.22,2.71,5.58,5.63,.35,2.83-1.29,5.55-4.03,6.7-.33,.14-.96,.48-1.63,.48h-78.96Z"/>
    <path class="c"
          d="M211.64,.43c2.86,1.08,4.67,3.99,4.21,6.83-.5,3.16-2.93,5.39-6.1,5.55-1.07,.05-2.14-.02-3.22-.02-27.7,0-55.41,0-83.11,0-1.39,0-2.82,.1-4.18-.14-2.96-.52-4.95-2.86-5.18-5.8-.22-2.74,1.55-5.39,4.26-6.41,.34-.13,.66-.29,1-.44,29.27,0,58.53,0,87.8,0C209.45,0,211.04,.21,211.64,.43Z"/>
    <path class="d"
          d="M535.91,101.19c0-6.16,.19-12.33-.04-18.48-.48-12.89-10.33-24.21-22.95-26.7-15.84-3.12-30.66,6.22-34.62,21.82-4.08,16.07,7.42,33.3,23.81,35.68,.69,.1,1.38,.21,2.08,.22,4.02,.07,6.94,3.02,6.71,6.83-.22,3.71-3.45,6.39-7.35,6.01-8.47-.81-16.16-3.68-22.8-9.04-9.26-7.47-14.56-17.13-15.77-29.01-2.09-20.53,11.87-40.09,32.72-44.67,23.71-5.2,46.57,10.31,50.35,34.31,.32,2.02,.42,4.09,.43,6.13,.04,10.41,.01,20.82,.03,31.23,0,1.26,.01,2.45,.02,3.78,.02,3.94-2.17,7.1-5.9,7.28-3.81,.19-6.78-2.82-6.76-6.78,.03-6.21,0-12.41,0-18.62h.03Z"/>
    <path class="c"
          d="M126.6,67.7v46.65c.55,.03,1.04,.07,1.54,.07,26.19,0,52.38,0,78.57,0,1.39,0,2.82-.09,4.17,.18,2.81,.57,4.75,3.14,4.76,5.97,0,2.83-1.94,5.36-4.73,6.01-.85,.2-1.75,.29-2.63,.29-28.76,.01-57.52,.01-86.27,.01-4.86,0-7.94-3.13-7.94-7.98,0-18.58,0-37.16,0-55.74,0-4.91,3.01-7.96,7.93-7.96,28.85,0,57.7,0,86.55,0,3.65,0,6.11,1.73,6.86,4.76,.96,3.91-1.82,7.58-5.9,7.74-.98,.04-1.96-.02-2.94-.02-26.1,0-52.19,0-78.29,0h-1.68Z"/>
  </g>
  <g>
    <path class="d" d="M26.52,175.5l-9.58-15.04v15.04h-7.35v-29.9h6.43l9.58,15.04v-15.04h7.35v29.9h-6.43Z"/>
    <path class="d"
          d="M54.79,172.85c-.78,.84-1.71,1.5-2.77,1.97-1.32,.62-2.81,.92-4.49,.92s-3.18-.31-4.49-.92c-1.06-.48-1.99-1.13-2.77-1.97-1.65-1.79-2.48-4.68-2.48-8.65s.83-6.86,2.48-8.65c.78-.84,1.71-1.5,2.77-1.97,1.32-.62,2.81-.92,4.49-.92s3.18,.31,4.49,.92c1.06,.48,1.99,1.13,2.77,1.97,1.65,1.79,2.48,4.68,2.48,8.65s-.83,6.86-2.48,8.65Zm-5.42-13.36c-.42-.42-1.04-.63-1.85-.63s-1.43,.21-1.85,.63c-.67,.67-1.01,2.24-1.01,4.71s.34,4.03,1.01,4.7c.42,.42,1.04,.63,1.85,.63s1.43-.21,1.85-.63c.67-.67,1.01-2.24,1.01-4.7s-.34-4.03-1.01-4.71Z"/>
    <path class="d"
          d="M74.07,175.5v-1.85c-1.4,1.4-3.15,2.1-5.25,2.1s-3.79-.64-5.08-1.93c-.9-.9-1.51-1.92-1.85-3.07-.28-.89-.42-2.03-.42-3.4v-14.45h6.89v13.52c0,1.15,.35,1.99,1.05,2.52,.48,.39,1.05,.59,1.72,.59s1.25-.2,1.72-.59c.7-.53,1.05-1.37,1.05-2.52v-13.52h6.89v22.6h-6.72Z"/>
    <path class="d"
          d="M100.49,173.94c-1.74,1.2-4.02,1.81-6.85,1.81-1.04,0-1.88-.03-2.52-.08-.92-.06-1.76-.18-2.52-.38-1.79-.48-3.39-1.41-4.79-2.81l4.45-4.45c.81,.81,1.82,1.36,3.02,1.64,.42,.11,.88,.18,1.39,.21,.2,.03,.39,.04,.59,.04h.5c.7,0,1.32-.1,1.85-.29,.73-.25,1.09-.64,1.09-1.18,0-.36-.1-.67-.29-.92-.28-.28-.73-.45-1.34-.5l-3.49-.34c-2.07-.2-3.65-.78-4.75-1.76-1.2-1.09-1.81-2.69-1.81-4.79,0-2.35,.94-4.23,2.81-5.63,1.68-1.23,3.74-1.85,6.17-1.85,2.02,0,3.68,.18,5,.55,1.57,.45,2.87,1.19,3.91,2.22l-4.24,4.24c-.5-.5-1.22-.87-2.14-1.09-.73-.17-1.61-.25-2.65-.25-.76,0-1.33,.15-1.72,.46-.34,.25-.5,.53-.5,.84v.29c.03,.14,.08,.27,.17,.38,.08,.14,.22,.25,.42,.34,.22,.14,.52,.22,.88,.25l3.49,.34c2.27,.22,3.99,.98,5.17,2.27,1.09,1.18,1.64,2.72,1.64,4.62,0,2.52-.98,4.47-2.94,5.84Z"/>
    <path class="d"
          d="M124.09,159.08v16.42h-6.89v-16.42h-2.06v-5.29h2.06v-1.97c0-1.76,.55-3.26,1.64-4.49,1.26-1.46,3.05-2.18,5.38-2.18h3.65v5.8h-2.39c-.92,0-1.39,.46-1.39,1.39v1.47h3.78v5.29h-3.78Z"/>
    <path class="d"
          d="M141.81,175.5v-1.85c-1.37,1.37-3.05,2.06-5.04,2.06-2.27,0-4.07-.67-5.42-2.02-1.32-1.32-1.97-3.08-1.97-5.29,0-1.85,.62-3.36,1.85-4.54,1.37-1.34,3.32-2.02,5.84-2.02h4.58v-.59c0-1.88-1.13-2.81-3.4-2.81-1.4,0-2.6,.5-3.61,1.51l-4.28-4.29c2.02-2.02,4.76-3.02,8.23-3.02,6.64,0,9.95,2.73,9.95,8.19v14.66h-6.72Zm-.17-9.07h-3.49c-1.46,0-2.18,.6-2.18,1.81s.76,1.89,2.27,1.89c1.23,0,2.14-.28,2.73-.84,.45-.42,.67-1.18,.67-2.27v-.59Z"/>
    <path class="d" d="M153.36,150.59v-5.25h6.89v5.25h-6.89Zm0,24.91v-21.71h6.89v21.71h-6.89Z"/>
    <path class="d"
          d="M179.95,173.94c-1.74,1.2-4.02,1.81-6.85,1.81-1.04,0-1.88-.03-2.52-.08-.92-.06-1.76-.18-2.52-.38-1.79-.48-3.39-1.41-4.79-2.81l4.45-4.45c.81,.81,1.82,1.36,3.02,1.64,.42,.11,.88,.18,1.39,.21,.2,.03,.39,.04,.59,.04h.5c.7,0,1.32-.1,1.85-.29,.73-.25,1.09-.64,1.09-1.18,0-.36-.1-.67-.29-.92-.28-.28-.73-.45-1.34-.5l-3.49-.34c-2.07-.2-3.65-.78-4.75-1.76-1.2-1.09-1.81-2.69-1.81-4.79,0-2.35,.94-4.23,2.81-5.63,1.68-1.23,3.74-1.85,6.17-1.85,2.02,0,3.68,.18,5,.55,1.57,.45,2.87,1.19,3.91,2.22l-4.24,4.24c-.5-.5-1.22-.87-2.14-1.09-.73-.17-1.61-.25-2.65-.25-.76,0-1.33,.15-1.72,.46-.34,.25-.5,.53-.5,.84v.29c.03,.14,.08,.27,.17,.38,.08,.14,.22,.25,.42,.34,.22,.14,.52,.22,.88,.25l3.49,.34c2.27,.22,3.99,.98,5.17,2.27,1.09,1.18,1.64,2.72,1.64,4.62,0,2.52-.98,4.47-2.94,5.84Z"/>
    <path class="d"
          d="M202.84,172.85c-.78,.84-1.71,1.5-2.77,1.97-1.32,.62-2.81,.92-4.49,.92s-3.18-.31-4.49-.92c-1.06-.48-1.99-1.13-2.77-1.97-1.65-1.79-2.48-4.68-2.48-8.65s.83-6.86,2.48-8.65c.78-.84,1.71-1.5,2.77-1.97,1.32-.62,2.81-.92,4.49-.92s3.18,.31,4.49,.92c1.06,.48,1.99,1.13,2.77,1.97,1.65,1.79,2.48,4.68,2.48,8.65s-.83,6.86-2.48,8.65Zm-5.42-13.36c-.42-.42-1.04-.63-1.85-.63s-1.43,.21-1.85,.63c-.67,.67-1.01,2.24-1.01,4.71s.34,4.03,1.01,4.7c.42,.42,1.04,.63,1.85,.63s1.43-.21,1.85-.63c.67-.67,1.01-2.24,1.01-4.7s-.34-4.03-1.01-4.71Z"/>
    <path class="d"
          d="M222.16,175.5v-13.52c0-1.15-.35-1.99-1.05-2.52-.48-.39-1.05-.59-1.72-.59s-1.25,.2-1.72,.59c-.7,.53-1.05,1.37-1.05,2.52v13.52h-6.89v-22.6h6.72v1.85c1.4-1.4,3.15-2.1,5.25-2.1s3.79,.64,5.08,1.93c.9,.9,1.51,1.92,1.85,3.07,.28,.9,.42,2.03,.42,3.4v14.45h-6.89Z"/>
    <path class="d"
          d="M248.53,173.94c-1.74,1.2-4.02,1.81-6.85,1.81-1.04,0-1.88-.03-2.52-.08-.92-.06-1.76-.18-2.52-.38-1.79-.48-3.39-1.41-4.79-2.81l4.45-4.45c.81,.81,1.82,1.36,3.02,1.64,.42,.11,.88,.18,1.39,.21,.2,.03,.39,.04,.59,.04h.5c.7,0,1.32-.1,1.85-.29,.73-.25,1.09-.64,1.09-1.18,0-.36-.1-.67-.29-.92-.28-.28-.73-.45-1.34-.5l-3.49-.34c-2.07-.2-3.65-.78-4.75-1.76-1.2-1.09-1.81-2.69-1.81-4.79,0-2.35,.94-4.23,2.81-5.63,1.68-1.23,3.74-1.85,6.17-1.85,2.02,0,3.68,.18,5,.55,1.57,.45,2.87,1.19,3.91,2.22l-4.24,4.24c-.5-.5-1.22-.87-2.14-1.09-.73-.17-1.61-.25-2.65-.25-.76,0-1.33,.15-1.72,.46-.34,.25-.5,.53-.5,.84v.29c.03,.14,.08,.27,.17,.38,.08,.14,.22,.25,.42,.34,.22,.14,.52,.22,.88,.25l3.49,.34c2.27,.22,3.99,.98,5.17,2.27,1.09,1.18,1.64,2.72,1.64,4.62,0,2.52-.98,4.47-2.94,5.84Z"/>
    <path class="d"
          d="M284.02,166.76c-.03,1.01-.1,1.88-.21,2.6-.28,1.9-.91,3.35-1.89,4.33-1.37,1.37-3.19,2.06-5.46,2.06-2.1,0-3.78-.63-5.04-1.89v8.95h-6.89v-29.9h6.68v1.85c1.4-1.4,3.14-2.1,5.21-2.1,2.3,0,4.13,.69,5.5,2.06,.98,.98,1.61,2.42,1.89,4.33,.11,.73,.18,1.6,.21,2.6v5.12Zm-7.35-6.47c-.42-.95-1.22-1.43-2.39-1.43s-1.97,.48-2.39,1.43c-.31,.73-.46,2.03-.46,3.91s.15,3.18,.46,3.91c.42,.95,1.22,1.43,2.39,1.43s1.97-.48,2.39-1.43c.31-.73,.46-2.03,.46-3.91s-.15-3.18-.46-3.91Z"/>
    <path class="d"
          d="M299.39,175.5v-1.85c-1.37,1.37-3.05,2.06-5.04,2.06-2.27,0-4.07-.67-5.42-2.02-1.32-1.32-1.97-3.08-1.97-5.29,0-1.85,.62-3.36,1.85-4.54,1.37-1.34,3.32-2.02,5.84-2.02h4.58v-.59c0-1.88-1.13-2.81-3.4-2.81-1.4,0-2.6,.5-3.61,1.51l-4.28-4.29c2.02-2.02,4.76-3.02,8.23-3.02,6.64,0,9.95,2.73,9.95,8.19v14.66h-6.72Zm-.17-9.07h-3.49c-1.46,0-2.18,.6-2.18,1.81s.76,1.89,2.27,1.89c1.23,0,2.14-.28,2.73-.84,.45-.42,.67-1.18,.67-2.27v-.59Z"/>
    <path class="d"
          d="M323.08,160.04c-.78-.78-1.61-1.18-2.48-1.18-.64,0-1.22,.2-1.72,.59-.7,.56-1.05,1.4-1.05,2.52v13.52h-6.89v-22.6h6.72v1.85c.56-.56,1.29-1.04,2.18-1.43,1.01-.45,2.06-.67,3.15-.67,2.13,0,3.89,.7,5.29,2.1l-5.21,5.29Z"/>
    <path class="d"
          d="M337.7,175.5c-2.32,0-4.12-.73-5.38-2.18-1.09-1.23-1.64-2.73-1.64-4.49v-23.23h6.89v22.72c0,.92,.46,1.39,1.39,1.39h2.39v5.79h-3.65Z"/>
    <path class="d"
          d="M349.92,166.43c0,2.35,1.33,3.53,3.99,3.53,1.12,0,2.04-.17,2.77-.5,.59-.25,1.22-.71,1.89-1.39l4.12,4.12c-1.23,1.23-2.46,2.11-3.7,2.65-1.4,.62-3.09,.92-5.08,.92-1.4,0-2.66-.14-3.78-.42-1.34-.36-2.51-.94-3.49-1.72-1.09-.87-1.93-2.03-2.52-3.49-.64-1.62-.97-3.6-.97-5.92,0-3.61,.95-6.47,2.86-8.57,1.82-1.99,4.24-2.98,7.27-2.98s5.68,1.05,7.56,3.15c1.74,1.96,2.6,4.48,2.6,7.56v3.07h-13.52Zm6.72-4.58c0-.67-.13-1.26-.38-1.76-.5-1.18-1.5-1.76-2.98-1.76s-2.48,.59-2.98,1.76c-.25,.5-.38,1.09-.38,1.76h6.72Z"/>
    <path class="d"
          d="M379.78,160.04c-.78-.78-1.61-1.18-2.48-1.18-.64,0-1.22,.2-1.72,.59-.7,.56-1.05,1.4-1.05,2.52v13.52h-6.89v-22.6h6.72v1.85c.56-.56,1.29-1.04,2.18-1.43,1.01-.45,2.06-.67,3.15-.67,2.13,0,3.89,.7,5.29,2.1l-5.21,5.29Z"/>
    <path class="b" d="M407.88,175.5h-5.25l-8.32-22.6h7.22l3.74,11.72,3.7-11.72h7.22l-8.32,22.6Z"/>
    <path class="b"
          d="M434.59,172.85c-.78,.84-1.71,1.5-2.77,1.97-1.32,.62-2.81,.92-4.49,.92s-3.18-.31-4.49-.92c-1.06-.48-1.99-1.13-2.77-1.97-1.65-1.79-2.48-4.68-2.48-8.65s.83-6.86,2.48-8.65c.78-.84,1.71-1.5,2.77-1.97,1.32-.62,2.81-.92,4.49-.92s3.18,.31,4.49,.92c1.06,.48,1.99,1.13,2.77,1.97,1.65,1.79,2.48,4.68,2.48,8.65s-.83,6.86-2.48,8.65Zm-5.42-13.36c-.42-.42-1.04-.63-1.85-.63s-1.43,.21-1.85,.63c-.67,.67-1.01,2.24-1.01,4.71s.34,4.03,1.01,4.7c.42,.42,1.04,.63,1.85,.63s1.43-.21,1.85-.63c.67-.67,1.01-2.24,1.01-4.7s-.34-4.03-1.01-4.71Z"/>
    <path class="b"
          d="M455.97,173.94c-1.74,1.2-4.02,1.81-6.85,1.81-1.04,0-1.88-.03-2.52-.08-.92-.06-1.76-.18-2.52-.38-1.79-.48-3.39-1.41-4.79-2.81l4.45-4.45c.81,.81,1.82,1.36,3.02,1.64,.42,.11,.88,.18,1.39,.21,.2,.03,.39,.04,.59,.04h.5c.7,0,1.32-.1,1.85-.29,.73-.25,1.09-.64,1.09-1.18,0-.36-.1-.67-.29-.92-.28-.28-.73-.45-1.34-.5l-3.49-.34c-2.07-.2-3.65-.78-4.75-1.76-1.2-1.09-1.81-2.69-1.81-4.79,0-2.35,.94-4.23,2.81-5.63,1.68-1.23,3.74-1.85,6.17-1.85,2.02,0,3.68,.18,5,.55,1.57,.45,2.87,1.19,3.91,2.22l-4.24,4.24c-.5-.5-1.22-.87-2.14-1.09-.73-.17-1.61-.25-2.65-.25-.76,0-1.33,.15-1.72,.46-.34,.25-.5,.53-.5,.84v.29c.03,.14,.08,.27,.17,.38,.08,.14,.22,.25,.42,.34,.22,.14,.52,.22,.88,.25l3.49,.34c2.27,.22,3.99,.98,5.17,2.27,1.09,1.18,1.64,2.72,1.64,4.62,0,2.52-.98,4.47-2.94,5.84Z"/>
    <path class="b"
          d="M483.98,175.5v-1.85c-1.4,1.4-3.14,2.1-5.21,2.1-2.3,0-4.13-.69-5.5-2.06-.98-.98-1.61-2.42-1.89-4.33-.11-.73-.18-1.6-.21-2.6v-5.12c.03-1.01,.1-1.88,.21-2.6,.28-1.9,.91-3.35,1.89-4.33,1.37-1.37,3.19-2.06,5.46-2.06,2.1,0,3.78,.63,5.04,1.89v-8.95h6.89v29.9h-6.68Zm-.67-15.2c-.42-.95-1.22-1.43-2.39-1.43s-2,.48-2.39,1.43c-.31,.73-.46,2.03-.46,3.91s.15,3.18,.46,3.91c.39,.95,1.19,1.43,2.39,1.43s1.97-.48,2.39-1.43c.31-.73,.46-2.03,.46-3.91s-.15-3.18-.46-3.91Z"/>
    <path class="b"
          d="M512.08,172.85c-.78,.84-1.71,1.5-2.77,1.97-1.32,.62-2.81,.92-4.49,.92s-3.18-.31-4.49-.92c-1.06-.48-1.99-1.13-2.77-1.97-1.65-1.79-2.48-4.68-2.48-8.65s.83-6.86,2.48-8.65c.78-.84,1.71-1.5,2.77-1.97,1.32-.62,2.81-.92,4.49-.92s3.18,.31,4.49,.92c1.06,.48,1.99,1.13,2.77,1.97,1.65,1.79,2.48,4.68,2.48,8.65s-.83,6.86-2.48,8.65Zm-5.42-13.36c-.42-.42-1.04-.63-1.85-.63s-1.43,.21-1.85,.63c-.67,.67-1.01,2.24-1.01,4.71s.34,4.03,1.01,4.7c.42,.42,1.04,.63,1.85,.63s1.43-.21,1.85-.63c.67-.67,1.01-2.24,1.01-4.7s-.34-4.03-1.01-4.71Z"/>
    <path class="b"
          d="M531.4,175.5v-13.52c0-1.15-.35-1.99-1.05-2.52-.48-.39-1.05-.59-1.72-.59s-1.25,.2-1.72,.59c-.7,.53-1.05,1.37-1.05,2.52v13.52h-6.89v-22.6h6.72v1.85c1.4-1.4,3.15-2.1,5.25-2.1s3.79,.64,5.08,1.93c.9,.9,1.51,1.92,1.85,3.07,.28,.9,.42,2.03,.42,3.4v14.45h-6.89Z"/>
    <path class="b"
          d="M555.71,175.5v-13.52c0-1.15-.35-1.99-1.05-2.52-.48-.39-1.05-.59-1.72-.59s-1.25,.2-1.72,.59c-.7,.53-1.05,1.37-1.05,2.52v13.52h-6.89v-22.6h6.72v1.85c1.4-1.4,3.15-2.1,5.25-2.1s3.79,.64,5.08,1.93c.9,.9,1.51,1.92,1.85,3.07,.28,.9,.42,2.03,.42,3.4v14.45h-6.89Z"/>
    <path class="b"
          d="M573.35,166.43c0,2.35,1.33,3.53,3.99,3.53,1.12,0,2.04-.17,2.77-.5,.59-.25,1.22-.71,1.89-1.39l4.12,4.12c-1.23,1.23-2.46,2.11-3.7,2.65-1.4,.62-3.09,.92-5.08,.92-1.4,0-2.66-.14-3.78-.42-1.34-.36-2.51-.94-3.49-1.72-1.09-.87-1.93-2.03-2.52-3.49-.64-1.62-.97-3.6-.97-5.92,0-3.61,.95-6.47,2.86-8.57,1.82-1.99,4.24-2.98,7.27-2.98s5.68,1.05,7.56,3.15c1.74,1.96,2.6,4.48,2.6,7.56v3.07h-13.52Zm6.72-4.58c0-.67-.13-1.26-.38-1.76-.5-1.18-1.5-1.76-2.98-1.76s-2.48,.59-2.98,1.76c-.25,.5-.38,1.09-.38,1.76h6.72Zm-1.47-11.97h-4.16l2.06-7.56h7.06l-4.96,7.56Z"/>
    <path class="b"
          d="M596.83,166.43c0,2.35,1.33,3.53,3.99,3.53,1.12,0,2.04-.17,2.77-.5,.59-.25,1.22-.71,1.89-1.39l4.12,4.12c-1.23,1.23-2.46,2.11-3.7,2.65-1.4,.62-3.09,.92-5.08,.92-1.4,0-2.66-.14-3.78-.42-1.34-.36-2.51-.94-3.49-1.72-1.09-.87-1.93-2.03-2.52-3.49-.64-1.62-.97-3.6-.97-5.92,0-3.61,.95-6.47,2.86-8.57,1.82-1.99,4.24-2.98,7.27-2.98s5.68,1.05,7.56,3.15c1.74,1.96,2.6,4.48,2.6,7.56v3.07h-13.52Zm6.72-4.58c0-.67-.13-1.26-.38-1.76-.5-1.18-1.5-1.76-2.98-1.76s-2.48,.59-2.98,1.76c-.25,.5-.38,1.09-.38,1.76h6.72Z"/>
    <path class="b"
          d="M629.04,173.94c-1.74,1.2-4.02,1.81-6.85,1.81-1.04,0-1.88-.03-2.52-.08-.92-.06-1.76-.18-2.52-.38-1.79-.48-3.39-1.41-4.79-2.81l4.45-4.45c.81,.81,1.82,1.36,3.02,1.64,.42,.11,.88,.18,1.39,.21,.2,.03,.39,.04,.59,.04h.5c.7,0,1.32-.1,1.85-.29,.73-.25,1.09-.64,1.09-1.18,0-.36-.1-.67-.29-.92-.28-.28-.73-.45-1.34-.5l-3.49-.34c-2.07-.2-3.65-.78-4.75-1.76-1.2-1.09-1.81-2.69-1.81-4.79,0-2.35,.94-4.23,2.81-5.63,1.68-1.23,3.74-1.85,6.17-1.85,2.02,0,3.68,.18,5,.55,1.57,.45,2.87,1.19,3.91,2.22l-4.24,4.24c-.5-.5-1.22-.87-2.14-1.09-.73-.17-1.61-.25-2.65-.25-.76,0-1.33,.15-1.72,.46-.34,.25-.5,.53-.5,.84v.29c.03,.14,.08,.27,.17,.38,.08,.14,.22,.25,.42,.34,.22,.14,.52,.22,.88,.25l3.49,.34c2.27,.22,3.99,.98,5.17,2.27,1.09,1.18,1.64,2.72,1.64,4.62,0,2.52-.98,4.47-2.94,5.84Z"/>
    <path class="b" d="M635.51,175.5v-7.56h7.56v7.56h-7.56Z"/>
  </g>
</svg>
